<?xml version="1.0" encoding="utf-8"?>
<!-- Generator: Adobe Illustrator 23.0.3, SVG Export Plug-In . SVG Version: 6.00 Build 0)  -->
<svg version="1.1" id="Capa_1" xmlns="http://www.w3.org/2000/svg" xmlns:xlink="http://www.w3.org/1999/xlink" x="0px" y="0px"
	 viewBox="0 0 438.5 438.5" style="enable-background:new 0 0 438.5 438.5;" xml:space="preserve">
<style type="text/css">
	.st0{fill:#FFFFFF;}
</style>
<g>
	<path class="st0" d="M277.7,186.3c-6-10.6-14.2-19-24.6-25.2c-10.3-6.2-21.6-9.3-33.9-9.3c-12.3,0-23.6,3.1-33.9,9.3
		s-18.5,14.6-24.6,25.2c-6,10.6-9.1,22.2-9.1,34.7c0,15.1,4.3,28.6,12.9,40.7c8.6,12,19.7,20.4,33.3,25c1.6,0.3,2.7,0.1,3.5-0.6
		c0.8-0.7,1.1-1.6,1.1-2.7c0-0.2,0-1.8,0-4.9c0-3.1,0-5.7,0-8l-2,0.4c-1.3,0.2-2.9,0.3-4.9,0.3c-2,0-4-0.2-6.1-0.6
		c-2.1-0.4-4.1-1.3-5.9-2.7c-1.8-1.4-3.1-3.3-3.9-5.5l-0.9-2.1c-0.6-1.4-1.5-2.9-2.8-4.6c-1.3-1.7-2.5-2.8-3.8-3.4l-0.6-0.5
		c-0.4-0.3-0.8-0.7-1.1-1.1c-0.3-0.4-0.6-0.8-0.8-1.3c-0.2-0.4,0-0.8,0.4-1c0.5-0.3,1.3-0.4,2.6-0.4l1.8,0.3c1.2,0.2,2.6,1,4.3,2.2
		c1.7,1.2,3.1,2.8,4.2,4.7c1.4,2.5,3,4.3,4.9,5.6c1.9,1.3,3.8,1.9,5.8,1.9s3.6-0.2,5-0.5s2.7-0.7,3.9-1.4c0.5-4,2-7.1,4.3-9.3
		c-3.3-0.4-6.3-0.9-9-1.6c-2.7-0.7-5.4-1.9-8.3-3.5c-2.8-1.6-5.2-3.6-7.1-6c-1.9-2.4-3.4-5.6-4.6-9.4c-1.2-3.9-1.8-8.4-1.8-13.5
		c0-7.3,2.3-13.4,7-18.6c-2.2-5.5-2-11.6,0.6-18.4c1.7-0.6,4.2-0.1,7.6,1.2c3.4,1.4,5.8,2.5,7.3,3.5c1.5,1,2.8,1.8,3.7,2.4
		c5.5-1.6,11.1-2.3,16.9-2.3c5.8,0,11.4,0.8,16.9,2.3l3.3-2.2c2.3-1.4,5-2.8,8.1-4c3.1-1.2,5.5-1.5,7.1-1c2.6,6.8,2.9,12.9,0.7,18.4
		c4.6,5.1,7,11.3,7,18.6c0,5.1-0.6,9.6-1.8,13.5c-1.2,3.9-2.7,7.1-4.6,9.4c-1.9,2.4-4.3,4.4-7.1,6c-2.8,1.6-5.6,2.8-8.3,3.5
		c-2.7,0.7-5.7,1.3-9,1.6c3,2.7,4.6,7,4.6,12.8v19c0,1.1,0.4,2,1.1,2.7c0.7,0.7,1.9,0.9,3.5,0.6c13.6-4.6,24.7-13,33.3-25
		c8.6-12,12.9-25.6,12.9-40.7C286.7,208.5,283.7,196.9,277.7,186.3z"/>
</g>
</svg>
