<?xml version="1.0" encoding="utf-8"?>
<!-- Generator: Adobe Illustrator 23.0.3, SVG Export Plug-In . SVG Version: 6.00 Build 0)  -->
<svg version="1.1" id="Capa_1" xmlns="http://www.w3.org/2000/svg" xmlns:xlink="http://www.w3.org/1999/xlink" x="0px" y="0px"
	 viewBox="0 0 438.5 438.5" style="enable-background:new 0 0 438.5 438.5;" xml:space="preserve">
<g>
	<path d="M409,112c-19.5-34.4-46.1-61.7-79.8-81.8C295.8,10.1,259.1,0,219.3,0c-39.9,0-76.5,10.1-109.9,30.2s-60,47.4-79.8,81.8
		C10.1,146.5,0,184.1,0,224.7c0,49,13.9,92.9,41.8,132.2c27.9,39,63.9,66.2,108,81.2c5.2,1,8.8,0.3,11.4-1.9
		c2.6-2.3,3.6-5.2,3.6-8.8c0-0.6,0-5.8,0-15.9c0-10.1,0-18.5,0-26l-6.5,1.3c-4.2,0.6-9.4,1-15.9,1c-6.5,0-13-0.6-19.8-1.9
		c-6.8-1.3-13.3-4.2-19.1-8.8c-5.8-4.5-10.1-10.7-12.6-17.9l-2.9-6.8c-1.9-4.5-4.9-9.4-9.1-14.9c-4.2-5.5-8.1-9.1-12.3-11l-1.9-1.6
		c-1.3-1-2.6-2.3-3.6-3.6c-1-1.3-1.9-2.6-2.6-4.2c-0.6-1.3,0-2.6,1.3-3.2c1.6-1,4.2-1.3,8.4-1.3l5.8,1c3.9,0.6,8.4,3.2,13.9,7.1
		c5.5,3.9,10.1,9.1,13.6,15.3c4.5,8.1,9.7,14,15.9,18.2c6.2,4.2,12.3,6.2,18.8,6.2c6.5,0,11.7-0.6,16.2-1.6s8.8-2.3,12.6-4.5
		c1.6-13,6.5-23.1,13.9-30.2c-10.7-1.3-20.4-2.9-29.2-5.2c-8.8-2.3-17.5-6.2-26.9-11.4c-9.1-5.2-16.9-11.7-23-19.5
		c-6.2-7.8-11-18.2-14.9-30.5c-3.9-12.7-5.8-27.3-5.8-43.8c0-23.7,7.5-43.5,22.7-60.4c-7.1-17.9-6.5-37.7,1.9-59.8
		c5.5-1.9,13.6-0.3,24.6,3.9c11,4.5,18.8,8.1,23.7,11.4s9.1,5.8,12,7.8c17.8-5.2,36-7.5,54.8-7.5c18.8,0,37,2.6,54.8,7.5l10.7-7.1
		c7.5-4.5,16.2-9.1,26.3-13c10.1-3.9,17.8-4.9,23-3.2c8.4,22.1,9.4,41.9,2.3,59.8c14.9,16.6,22.7,36.7,22.7,60.4
		c0,16.6-1.9,31.2-5.8,43.8c-3.9,12.7-8.8,23.1-14.9,30.5c-6.2,7.8-13.9,14.3-23,19.5s-18.2,9.1-26.9,11.4s-18.5,4.2-29.2,5.2
		c9.7,8.8,14.9,22.7,14.9,41.6v61.7c0,3.6,1.3,6.5,3.6,8.8c2.3,2.3,6.2,2.9,11.4,1.9c44.1-14.9,80.1-42.2,108-81.2
		s41.8-83.1,41.8-132.2C438.2,184.1,428.4,146.5,409,112z"/>
</g>
</svg>
